<svg xmlns="http://www.w3.org/2000/svg" viewBox="0 0 30 34" enable-background="new 0 0 30 34"><path d="M30 22.499c0 1.1-.749 2.5-1.665 3.111l-11.67 7.78c-.916.61-2.414.61-3.33 0l-11.67-7.78c-.916-.611-1.665-2.01-1.665-3.111v-10.998c0-1.1.749-2.5 1.665-3.111l11.67-7.78c.916-.61 2.414-.61 3.33 0l11.67 7.78c.916.611 1.665 2.01 1.665 3.111v10.998z" fill="#F38844"/><g><path d="M15.226 13.438c.659-.083 1.269-.481 1.567-1.044.321-.606.268-1.334-.151-2.051-.851-1.46-.432-2.744-.414-2.797.035-.102.008-.217-.068-.29-.077-.072-.187-.089-.28-.041-.119.061-2.88 1.521-2.88 4.019 0 1.129.752 2.062 1.72 2.202l.506.002z" fill="#fff"/><path d="M15 18.5c-.276 0-.5-.224-.5-.5v-6c0-.276.224-.5.5-.5s.5.224.5.5v6c0 .276-.224.5-.5.5z" fill="#F38844"/><path d="M13.54 16.101c.765-1.054 1.394-1.189 1.904-1.189.578 0 1.802.272 1.802 2.125v5.422h.595c1.19 0 1.343.799 1.343 1.156s-.153 1.156-1.343 1.156h-.578v1.02c0 1.275-.901 1.496-1.326 1.496-.442 0-1.343-.221-1.343-1.496v-1.02h-4.062c-1.513 0-1.768-1.054-1.768-1.513 0-.323.085-.748.459-1.275l4.317-5.882zm1.071 2.295h-.051l-2.855 4.062h2.907v-4.062z" fill="#fff"/></g></svg>