<svg xmlns="http://www.w3.org/2000/svg" viewBox="0 0 30 34" enable-background="new 0 0 30 34"><path d="M30 22.499c0 1.1-.749 2.5-1.665 3.111l-11.67 7.78c-.916.61-2.414.61-3.33 0l-11.67-7.78c-.916-.611-1.665-2.01-1.665-3.111v-10.998c0-1.1.749-2.5 1.665-3.111l11.67-7.78c.916-.61 2.414-.61 3.33 0l11.67 7.78c.916.611 1.665 2.01 1.665 3.111v10.998z" fill="#C94E4B"/><path d="M20.089 18.283c-2.421-2.962-7.286-3.12-9.935-.392-1.389 1.431-2.031 3.235-.827 4.988.946 1.378 2.08 1.854 3.691 1.448.503-.126 1.02-.271 1.597-.271h.282c.554.058 1.046.267 1.508.457.302.124.611.25.935.305.709.129 1.47-.258 2.055-.627 2.224-1.405 2.304-3.939.694-5.908zm-8.758-5.059c.441.214.933.341 1.423.36 2.159 0 2.739-6.836.194-6.407-1.243.209-2.14 1.684-2.662 2.704-.703 1.377-.481 2.604 1.045 3.343zm-.617 2.195c-.114-1.248-2.205-4.053-3.684-3.016-1.508 1.143-1.328 4.326.334 5.306 1.175.692 3.231-1.136 3.35-2.29-.032-.342-.085.816 0 0zm5.974-1.655c1.205.179 3.19-.535 3.245-1.989 0-1.374-1.617-4.934-3.424-4.269-1.734.556-1.699 5.98.179 6.258zm7.3.772c-.067-.781-.414-1.508-.989-2.042-.797-.674-1.899.282-2.438.841-1.026 1.062-1.843 2.284-.705 3.542.554.613 1.655 1.493 2.556 1.131 1.186-.475 1.674-2.34 1.576-3.472z" fill="#fff"/><path d="M15 1.152c.429 0 .834.106 1.11.29l11.67 7.78c.639.426 1.22 1.512 1.22 2.279v10.998c0 .767-.581 1.853-1.219 2.279l-11.67 7.78c-.276.184-.681.29-1.11.29s-.834-.106-1.11-.29l-11.67-7.78c-.64-.426-1.221-1.512-1.221-2.279v-10.998c0-.767.581-1.853 1.219-2.279l11.67-7.78c.277-.184.682-.29 1.111-.29m0-1c-.603 0-1.207.153-1.665.458l-11.67 7.78c-.916.611-1.665 2.01-1.665 3.111v10.998c0 1.1.749 2.5 1.665 3.111l11.67 7.78c.458.305 1.061.458 1.665.458s1.207-.153 1.665-.458l11.67-7.78c.916-.611 1.665-2.01 1.665-3.111v-10.998c0-1.1-.749-2.5-1.665-3.111l-11.67-7.78c-.458-.305-1.062-.458-1.665-.458z" fill="#C94E4B"/><g><path d="M25.621 25.093c.305-.409.46-.855.46-1.325 0-1.09-.848-1.911-1.972-1.911-.676 0-1.259.327-1.731.974l-1.927 2.61c-.746.994-1.143 2.109-1.143 3.22 0 2.338 1.827 4.035 4.346 4.035 2.518 0 4.346-1.717 4.346-4.082 0-1.627-.974-2.982-2.379-3.521" fill="#C94E4B"/><path d="M23.186 23.42c.324-.444.636-.564.923-.564.54 0 .972.36.972.911 0 .193-.048.468-.312.792l-1.115 1.379h.036c.156-.059.372-.095.563-.095 1.488 0 2.747 1.115 2.747 2.77 0 1.931-1.511 3.082-3.346 3.082-1.847 0-3.346-1.175-3.346-3.034 0-1.007.407-1.907.947-2.626l1.931-2.615zm.48 3.91c-.792 0-1.343.552-1.343 1.343 0 .732.527 1.344 1.331 1.344.791 0 1.331-.552 1.331-1.356 0-.768-.527-1.331-1.319-1.331" fill="#fff"/></g></svg>